{"title":"Justin Timberlake - Tunnel Vision [Explicit] 1080p [Sbyky]","uid":11736496,"size":115767733,"categoryP":"video","categoryS":"music_videos","magnet":"?xt=urn:btih:773ccbdc7e09c8eba0b4df1a29cba15c0a75b2bb&amp;dn=Justin+Timberlake+-+Tunnel+Vision+%5BExplicit%5D+1080p+%5BSbyky%5D&amp;tr=udp%3A%2F%2Ftracker.openbittorrent.com%3A80&amp;tr=udp%3A%2F%2Fopen.demonii.com%3A1337&amp;tr=udp%3A%2F%2Ftracker.coppersurfer.tk%3A6969&amp;tr=udp%3A%2F%2Fexodus.desync.com%3A6969","seeders":6,"leechers":0,"uploader":"Sbyky","files":1,"time":1425586689,"description":"General\nComplete name                            : Justin Timberlake - Tunnel Vision [Explicit] 1080p [Sbyky].mp4\nFormat                                   : MPEG-4\nFormat profile                           : Base Media\nCodec ID                                 : isom\nFile size                                : 110 MiB\nDuration                                 : 6mn 58s\nOverall bit rate mode                    : Variable\nOverall bit rate                         : 2 211 Kbps\nEncoded date                             : UTC 2014-11-29 05:44:00\nTagged date                              : UTC 2014-11-29 05:44:00\n\nVideo\nID                                       : 1\nFormat                                   : AVC\nFormat/Info                              : Advanced Video Codec\nFormat profile                           : &lt;a class=&quot;__cf_email__&quot; href=&quot;/cdn-cgi/l/email-protection&quot; data-cfemail=&quot;3a72535d527a760e140a&quot;&gt;[email&amp;#160;protected]&lt;/a&gt;&lt;script cf-hash='f9e31' type=&quot;text/javascript&quot;&gt;\n/* &lt;![CDATA[ */!function(){try{var t=&quot;currentScript&quot;in document?document.currentScript:function(){for(var t=document.getElementsByTagName(&quot;script&quot;),e=t.length;e--;)if(t[e].getAttribute(&quot;cf-hash&quot;))return t[e]}();if(t&amp;&amp;t.previousSibling){var e,r,n,i,c=t.previousSibling,a=c.getAttribute(&quot;data-cfemail&quot;);if(a){for(e=&quot;&quot;,r=parseInt(a.substr(0,2),16),n=2;a.length-n;n+=2)i=parseInt(a.substr(n,2),16)^r,e+=String.fromCharCode(i);e=document.createTextNode(e),c.parentNode.replaceChild(e,c)}}}catch(u){}}();/* ]]&gt; */&lt;/script&gt;\nFormat settings, CABAC                   : Yes\nFormat settings, ReFrames                : 3 frames\nCodec ID                                 : avc1\nCodec ID/Info                            : Advanced Video Coding\nDuration                                 : 6mn 58s\nBit rate                                 : 2 081 Kbps\nWidth                                    : 1 920 pixels\nHeight                                   : 1 080 pixels\nDisplay aspect ratio                     : 16:9\nFrame rate mode                          : Variable\nFrame rate                               : 23.976 fps\nMinimum frame rate                       : 23.974 fps\nMaximum frame rate                       : 23.981 fps\nColor space                              : YUV\nChroma subsampling                       : 4:2:0\nBit depth                                : 8 bits\nScan type                                : Progressive\nBits/(Pixel*Frame)                       : 0.042\nStream size                              : 104 MiB (94%)\nEncoded date                             : UTC 2014-11-29 05:44:00\nTagged date                              : UTC 2014-11-29 05:44:00\n\nAudio\nID                                       : 2\nFormat                                   : AAC\nFormat/Info                              : Advanced Audio Codec\nFormat profile                           : LC\nCodec ID                                 : 40\nDuration                                 : 6mn 58s\nBit rate mode                            : Variable\nBit rate                                 : 126 Kbps\nChannel(s)                               : 2 channels\nChannel positions                        : Front: L R\nSampling rate                            : 44.1 KHz\nCompression mode                         : Lossy\nStream size                              : 6.27 MiB (6%)\nEncoded date                             : UTC 2014-11-29 05:42:37\nTagged date                              : UTC 2014-11-29 05:42:37\n\nShared By Sbyky","torrent":{"xt":"urn:btih:773ccbdc7e09c8eba0b4df1a29cba15c0a75b2bb","amp;dn":"Justin+Timberlake+-+Tunnel+Vision+%5BExplicit%5D+1080p+%5BSbyky%5D","amp;tr":["udp%3A%2F%2Ftracker.openbittorrent.com%3A80","udp%3A%2F%2Fopen.demonii.com%3A1337","udp%3A%2F%2Ftracker.coppersurfer.tk%3A6969","udp%3A%2F%2Fexodus.desync.com%3A6969"],"infoHash":"773ccbdc7e09c8eba0b4df1a29cba15c0a75b2bb","infoHashBuffer":{"type":"Buffer","data":[119,60,203,220,126,9,200,235,160,180,223,26,41,203,161,92,10,117,178,187]},"announce":[],"urlList":[]}}